<svg width="193" height="55" viewBox="0 0 193 55" fill="none" xmlns="http://www.w3.org/2000/svg">
<path d="M132.5 0L134.256 4.74441L139 6.5L134.256 8.25559L132.5 13L130.744 8.25559L126 6.5L130.744 4.74441L132.5 0Z" fill="#E21F4D"/>
<g filter="url(#filter0_d_58_2)">
<path d="M13.97 11.59L4.07 11.545V42.955L13.97 43C22.16 43 28.775 36.025 28.775 27.34C28.775 18.61 22.16 11.59 13.97 11.59ZM13.745 37.105H9.875V17.665L13.745 17.62C18.785 17.62 22.88 21.985 22.88 27.34C22.88 32.695 18.785 37.105 13.745 37.105ZM49.9827 35.125C50.1177 34.495 50.1627 33.82 50.1627 33.145C50.1627 27.52 45.7527 22.93 40.3077 22.93C34.9077 22.93 30.4977 27.52 30.4977 33.145C30.4977 38.815 34.9077 43.405 40.3077 43.405C43.0077 43.405 45.4827 42.28 47.2377 40.435C47.8227 39.85 48.3627 39.175 48.7677 38.455V38.41L43.4577 36.43H43.4127C42.6027 37.24 41.5227 37.78 40.3077 37.78C38.5527 37.78 37.0227 36.655 36.3027 35.125H36.3477C36.3477 35.125 49.5777 35.125 49.9827 35.125ZM36.3027 31.165C36.9777 29.59 38.5077 28.42 40.3077 28.42C42.0627 28.42 43.5477 29.59 44.2677 31.12L36.3027 31.165ZM57.928 33.235C57.928 30.805 59.773 28.735 62.068 28.735C64.318 28.735 66.163 30.805 66.163 33.235V43H71.383V33.235C71.383 27.79 67.198 23.38 62.068 23.38C60.583 23.38 59.008 23.875 57.928 24.865C57.928 24.505 57.928 23.29 57.928 23.29H52.798V43H57.928V33.235ZM85.6177 37.87H81.1627C80.3977 37.87 79.8127 37.285 79.8127 36.565V28.465H85.6177V23.425H79.8127L79.7677 17.845H74.5477C74.5477 17.89 74.5477 36.655 74.5477 37.465C74.5477 40.525 77.1127 43.045 80.3077 43.045L85.6177 43V37.87ZM88.6134 43.045H93.8784V23.335H88.6134V43.045ZM91.2234 21.13C92.7984 21.13 94.1034 19.825 94.1034 18.16C94.1034 16.54 92.7984 15.19 91.2234 15.19C89.6484 15.19 88.3884 16.54 88.3884 18.16C88.3884 19.825 89.6484 21.13 91.2234 21.13ZM108.828 31.75C108.558 31.66 103.833 30.085 103.698 29.95C101.943 28.87 103.383 27.385 105.408 27.385C106.398 27.385 107.793 27.88 107.838 28.87H113.868C113.868 27.205 112.923 25.63 111.258 24.505C108.153 22.255 102.618 22.255 99.5132 24.505C96.6332 26.395 96.0032 29.815 98.3882 32.29C99.2882 33.235 100.503 33.955 101.943 34.405C101.988 34.405 106.398 35.935 106.443 35.935C108.873 36.7 107.883 38.725 105.408 38.77C103.923 38.77 102.933 38.005 102.933 37.285H96.9482C96.9482 38.95 97.8482 40.525 99.5132 41.65C102.618 43.9 108.153 43.9 111.258 41.65C114.138 39.76 114.768 36.34 112.383 33.865C111.528 32.965 110.268 32.245 108.828 31.75ZM127.717 37.87H123.262C122.497 37.87 121.912 37.285 121.912 36.565V28.465H127.717V23.425H121.912L121.867 17.845H116.647C116.647 17.89 116.647 36.655 116.647 37.465C116.647 40.525 119.212 43.045 122.407 43.045L127.717 43V37.87Z" fill="#3F3F3F"/>
<path d="M145.788 11.545H137.373L128.958 43H134.943L137.058 35.17H146.193L148.353 43H154.338L145.788 11.545ZM138.543 29.68L141.648 17.845L144.708 29.68H138.543ZM165.472 23.29C163.987 23.29 162.502 23.785 161.287 24.82C161.287 24.46 161.287 23.245 161.287 23.245H156.157V43H161.287V33.19C161.287 30.805 163.132 28.735 165.427 28.735C167.407 28.735 169.027 30.265 169.432 32.2C169.522 32.515 169.567 32.875 169.567 33.19V43C169.567 43 172.942 43 174.742 43C174.742 38.635 174.742 33.055 174.742 33.055C174.742 32.65 174.787 32.245 174.877 31.885C175.417 30.085 176.992 28.645 178.837 28.645C181.132 28.645 182.977 30.715 182.977 33.145V43H188.197V33.19C188.197 28.51 185.182 24.64 181.132 23.605C180.412 23.425 179.692 23.335 178.927 23.335C176.272 23.335 173.842 24.505 172.177 26.35C171.412 25.54 170.557 24.865 169.612 24.37C168.352 23.695 166.957 23.29 165.472 23.29Z" fill="#E21F4D"/>
</g>
<defs>
<filter id="filter0_d_58_2" x="0.0699997" y="11.5449" width="192.127" height="40.355" filterUnits="userSpaceOnUse" color-interpolation-filters="sRGB">
<feFlood flood-opacity="0" result="BackgroundImageFix"/>
<feColorMatrix in="SourceAlpha" type="matrix" values="0 0 0 0 0 0 0 0 0 0 0 0 0 0 0 0 0 0 127 0" result="hardAlpha"/>
<feOffset dy="4"/>
<feGaussianBlur stdDeviation="2"/>
<feComposite in2="hardAlpha" operator="out"/>
<feColorMatrix type="matrix" values="0 0 0 0 0 0 0 0 0 0 0 0 0 0 0 0 0 0 0.25 0"/>
<feBlend mode="normal" in2="BackgroundImageFix" result="effect1_dropShadow_58_2"/>
<feBlend mode="normal" in="SourceGraphic" in2="effect1_dropShadow_58_2" result="shape"/>
</filter>
</defs>
</svg>
